<svg width="131" height="24" viewBox="0 0 131 24" fill="none" xmlns="http://www.w3.org/2000/svg">
<path d="M10.56 23.192C8.53333 23.192 6.74133 22.7653 5.184 21.912C3.648 21.0373 2.44267 19.8427 1.568 18.328C0.714667 16.8133 0.288 15.1067 0.288 13.208V0.567999H3.744V13.016C3.744 14.3173 4.04267 15.4907 4.64 16.536C5.25867 17.56 6.08 18.3707 7.104 18.968C8.14933 19.544 9.30133 19.832 10.56 19.832C11.8827 19.832 13.0667 19.544 14.112 18.968C15.1787 18.3707 16.0107 17.56 16.608 16.536C17.2267 15.4907 17.536 14.3173 17.536 13.016V0.567999H20.832V13.208C20.832 15.1067 20.3947 16.8133 19.52 18.328C18.6667 19.8427 17.4613 21.0373 15.904 21.912C14.368 22.7653 12.5867 23.192 10.56 23.192ZM37.8045 23.32C36.3752 23.32 35.0525 23.16 33.8365 22.84C32.6205 22.52 31.5112 22.04 30.5085 21.4C29.5058 20.76 28.6098 19.9493 27.8205 18.968L30.0605 16.152C31.2978 17.624 32.5245 18.6693 33.7405 19.288C34.9778 19.9067 36.3858 20.216 37.9645 20.216C38.9458 20.216 39.8632 20.088 40.7165 19.832C41.5912 19.5547 42.2952 19.1707 42.8285 18.68C43.3832 18.168 43.6605 17.56 43.6605 16.856C43.6605 16.3867 43.5218 15.9813 43.2445 15.64C42.9885 15.2987 42.6365 15.0107 42.1885 14.776C41.7618 14.52 41.2605 14.3067 40.6845 14.136C40.1298 13.9653 39.5538 13.8267 38.9565 13.72C38.3592 13.592 37.7725 13.4853 37.1965 13.4C35.8952 13.1867 34.7325 12.9093 33.7085 12.568C32.6845 12.2053 31.8098 11.7573 31.0845 11.224C30.3805 10.6693 29.8472 10.0293 29.4845 9.304C29.1218 8.55733 28.9405 7.704 28.9405 6.744C28.9405 5.76267 29.1645 4.87733 29.6125 4.088C30.0605 3.27733 30.6898 2.59467 31.5005 2.04C32.3112 1.464 33.2605 1.02667 34.3485 0.727999C35.4365 0.429332 36.6205 0.279999 37.9005 0.279999C39.2445 0.279999 40.4712 0.429332 41.5805 0.727999C42.6898 1.02667 43.6818 1.47467 44.5565 2.072C45.4312 2.648 46.1565 3.36267 46.7325 4.216L44.3645 6.68C43.8525 5.976 43.2552 5.37867 42.5725 4.888C41.8898 4.39733 41.1432 4.024 40.3325 3.768C39.5432 3.512 38.7005 3.384 37.8045 3.384C36.7805 3.384 35.8738 3.512 35.0845 3.768C34.3165 4.024 33.6978 4.38667 33.2285 4.856C32.7805 5.304 32.5565 5.848 32.5565 6.488C32.5565 7 32.6845 7.45867 32.9405 7.864C33.2178 8.248 33.6018 8.57867 34.0925 8.856C34.5832 9.13333 35.1912 9.368 35.9165 9.56C36.6418 9.752 37.4738 9.92267 38.4125 10.072C39.6498 10.264 40.8018 10.52 41.8685 10.84C42.9565 11.1387 43.9058 11.5227 44.7165 11.992C45.5272 12.4613 46.1565 13.0373 46.6045 13.72C47.0525 14.4027 47.2765 15.2347 47.2765 16.216C47.2765 17.6453 46.8818 18.8933 46.0925 19.96C45.3245 21.0267 44.2365 21.8587 42.8285 22.456C41.4205 23.032 39.7458 23.32 37.8045 23.32ZM71.9118 23L69.2558 20.056L68.4878 19.288L62.4078 13.272C61.8958 12.76 61.3304 12.2053 60.7118 11.608C60.1144 10.9893 59.5491 10.36 59.0158 9.72C58.5038 9.08 58.0771 8.44 57.7358 7.8C57.3944 7.13867 57.2238 6.488 57.2238 5.848C57.2238 4.888 57.5118 3.98133 58.0878 3.128C58.6851 2.27467 59.5278 1.58133 60.6158 1.048C61.7251 0.493333 63.0264 0.216 64.5198 0.216C65.7784 0.216 66.9198 0.408 67.9438 0.792C68.9678 1.176 69.8424 1.69866 70.5678 2.36C71.3144 3.02133 71.8904 3.768 72.2958 4.6L69.8958 6.584C69.2558 5.432 68.4664 4.6 67.5278 4.088C66.5891 3.576 65.6078 3.32 64.5838 3.32C63.9438 3.32 63.3571 3.40533 62.8238 3.576C62.3118 3.72533 61.9064 3.98133 61.6078 4.344C61.3091 4.68533 61.1598 5.12267 61.1598 5.656C61.1598 6.06133 61.2664 6.488 61.4798 6.936C61.7144 7.384 62.0024 7.832 62.3438 8.28C62.7064 8.728 63.0798 9.15467 63.4638 9.56C63.8691 9.944 64.2318 10.296 64.5518 10.616L71.1758 17.08L71.9118 18.008L76.3918 23H71.9118ZM62.7278 23.416C60.7651 23.416 59.0904 23.0853 57.7038 22.424C56.3384 21.7627 55.2931 20.8987 54.5677 19.832C53.8424 18.744 53.4798 17.5813 53.4798 16.344C53.4798 14.7867 53.9704 13.3893 54.9518 12.152C55.9331 10.8933 57.4158 9.89067 59.3998 9.144L61.5118 11.512C59.9971 11.896 58.9198 12.4507 58.2798 13.176C57.6398 13.9013 57.3198 14.776 57.3198 15.8C57.3198 16.5893 57.5224 17.3147 57.9278 17.976C58.3331 18.616 58.9624 19.128 59.8158 19.512C60.6904 19.896 61.7998 20.088 63.1438 20.088C64.0398 20.088 64.9358 19.9387 65.8318 19.64C66.7278 19.3413 67.5491 18.8827 68.2958 18.264C69.0638 17.6453 69.6931 16.856 70.1838 15.896C70.6744 14.936 70.9624 13.7947 71.0478 12.472H74.3438C74.2798 13.9013 74.0024 15.2027 73.5118 16.376C73.0424 17.528 72.4238 18.552 71.6558 19.448C70.9091 20.3227 70.0451 21.0587 69.0638 21.656C68.1038 22.232 67.0798 22.6693 65.9918 22.968C64.9251 23.2667 63.8371 23.416 62.7278 23.416ZM93.9745 23.32C92.2892 23.32 90.7212 23.0533 89.2705 22.52C87.8198 21.9653 86.5505 21.176 85.4625 20.152C84.3745 19.128 83.5318 17.912 82.9345 16.504C82.3372 15.0747 82.0385 13.5067 82.0385 11.8C82.0385 10.1787 82.3585 8.67467 82.9985 7.288C83.6385 5.90133 84.5132 4.696 85.6225 3.672C86.7318 2.62667 88.0118 1.82667 89.4625 1.272C90.9132 0.695999 92.4598 0.407999 94.1025 0.407999C95.3825 0.407999 96.6198 0.589333 97.8145 0.952C99.0305 1.29333 100.119 1.752 101.079 2.328C102.06 2.904 102.849 3.53333 103.447 4.216L101.271 6.904C100.567 6.264 99.8305 5.72 99.0625 5.272C98.2945 4.80267 97.4838 4.45067 96.6305 4.216C95.7772 3.96 94.8705 3.832 93.9105 3.832C92.8225 3.832 91.7772 4.024 90.7745 4.408C89.7718 4.792 88.8758 5.336 88.0865 6.04C87.3185 6.72267 86.6998 7.55467 86.2305 8.536C85.7825 9.51733 85.5585 10.6053 85.5585 11.8C85.5585 13.08 85.7825 14.2213 86.2305 15.224C86.6998 16.2267 87.3398 17.08 88.1505 17.784C88.9825 18.4667 89.9212 18.9893 90.9665 19.352C92.0332 19.7147 93.1638 19.896 94.3585 19.896C95.4038 19.896 96.3532 19.768 97.2065 19.512C98.0598 19.2347 98.8385 18.8827 99.5425 18.456C100.247 18.008 100.887 17.5493 101.463 17.08L103.159 19.928C102.604 20.4613 101.847 20.9947 100.887 21.528C99.9478 22.04 98.8812 22.4667 97.6865 22.808C96.5132 23.1493 95.2758 23.32 93.9745 23.32ZM121.1 23.32C119.414 23.32 117.846 23.0533 116.396 22.52C114.945 21.9653 113.676 21.176 112.588 20.152C111.5 19.128 110.657 17.912 110.06 16.504C109.462 15.0747 109.164 13.5067 109.164 11.8C109.164 10.1787 109.484 8.67467 110.124 7.288C110.764 5.90133 111.638 4.696 112.748 3.672C113.857 2.62667 115.137 1.82667 116.588 1.272C118.038 0.695999 119.585 0.407999 121.228 0.407999C122.508 0.407999 123.745 0.589333 124.94 0.952C126.156 1.29333 127.244 1.752 128.204 2.328C129.185 2.904 129.974 3.53333 130.572 4.216L128.396 6.904C127.692 6.264 126.956 5.72 126.188 5.272C125.42 4.80267 124.609 4.45067 123.756 4.216C122.902 3.96 121.996 3.832 121.036 3.832C119.948 3.832 118.902 4.024 117.9 4.408C116.897 4.792 116.001 5.336 115.212 6.04C114.444 6.72267 113.825 7.55467 113.356 8.536C112.908 9.51733 112.684 10.6053 112.684 11.8C112.684 13.08 112.908 14.2213 113.356 15.224C113.825 16.2267 114.465 17.08 115.276 17.784C116.108 18.4667 117.046 18.9893 118.092 19.352C119.158 19.7147 120.289 19.896 121.484 19.896C122.529 19.896 123.478 19.768 124.332 19.512C125.185 19.2347 125.964 18.8827 126.668 18.456C127.372 18.008 128.012 17.5493 128.588 17.08L130.284 19.928C129.729 20.4613 128.972 20.9947 128.012 21.528C127.073 22.04 126.006 22.4667 124.812 22.808C123.638 23.1493 122.401 23.32 121.1 23.32Z" fill="#E7E7E7"/>
</svg>
